{
  "accessors": [
    {
      "bufferView": 2,
      "componentType": 5126,
      "count": 570,
      "max": [
        0.2955167591571808,
        0.3686566650867462,
        0.5665271878242493
      ],
      "min": [
        -0.3116932809352875,
        -0.011208843439817429,
        -0.39701342582702637
      ],
      "type": "VEC3"
    },
    {
      "bufferView": 2,
      "byteOffset": 6840,
      "componentType": 5126,
      "count": 570,
      "max": [
        1.0,
        0.9999338984489441,
        1.0
      ],
      "min": [
        -1.0,
        -1.0,
        -1.0
      ],
      "type": "VEC3"
    },
    {
      "bufferView": 1,
      "componentType": 5126,
      "count": 570,
      "max": [
        0.99609375,
        0.99609375
      ],
      "min": [
        0.00390625,
        0.00305098295211792
      ],
      "type": "VEC2"
    },
    {
      "bufferView": 0,
      "componentType": 5125,
      "count": 2250,
      "type": "SCALAR"
    },
    {
      "bufferView": 2,
      "byteOffset": 13680,
      "componentType": 5126,
      "count": 684,
      "max": [
        0.2444429248571396,
        0.2455085813999176,
        0.24444298446178436
      ],
      "min": [
        -0.24443605542182922,
        0.16240613162517548,
        -0.244320809841156
      ],
      "type": "VEC3"
    },
    {
      "bufferView": 2,
      "byteOffset": 21888,
      "componentType": 5126,
      "count": 684,
      "max": [
        0.9873529076576233,
        0.9999599456787109,
        0.9875407218933105
      ],
      "min": [
        -0.9948907494544983,
        -0.9999433159828186,
        -0.9927670955657959
      ],
      "type": "VEC3"
    },
    {
      "bufferView": 1,
      "byteOffset": 4560,
      "componentType": 5126,
      "count": 684,
      "max": [
        1.6878644227981567,
        0.9877293705940247
      ],
      "min": [
        0.01058410108089447,
        0.010236620903015137
      ],
      "type": "VEC2"
    },
    {
      "bufferView": 0,
      "byteOffset": 9000,
      "componentType": 5125,
      "count": 3345,
      "type": "SCALAR"
    },
    {
      "bufferView": 2,
      "byteOffset": 30096,
      "componentType": 5126,
      "count": 434,
      "max": [
        0.11081714183092117,
        0.34706875681877136,
        0.2353489100933075
      ],
      "min": [
        -0.1736733317375183,
        0.1685193032026291,
        -0.24998526275157928
      ],
      "type": "VEC3"
    },
    {
      "bufferView": 2,
      "byteOffset": 35304,
      "componentType": 5126,
      "count": 434,
      "max": [
        0.9810439348220825,
        0.9755859375,
        0.9961858987808228
      ],
      "min": [
        -0.9922872185707092,
        -0.9755859375,
        -0.994201123714447
      ],
      "type": "VEC3"
    },
    {
      "bufferView": 1,
      "byteOffset": 10032,
      "componentType": 5126,
      "count": 434,
      "max": [
        0.99609375,
        0.9969040751457214
      ],
      "min": [
        0.00390625,
        0.012588858604431152
      ],
      "type": "VEC2"
    },
    {
      "bufferView": 0,
      "byteOffset": 22380,
      "componentType": 5125,
      "count": 1164,
      "type": "SCALAR"
    },
    {
      "bufferView": 2,
      "byteOffset": 40512,
      "componentType": 5126,
      "count": 425,
      "max": [
        0.010200129821896553,
        0.2559228241443634,
        0.10287119448184967
      ],
      "min": [
        -0.21142800152301788,
        0.1816406548023224,
        -0.18390440940856934
      ],
      "type": "VEC3"
    },
    {
      "bufferView": 2,
      "byteOffset": 45612,
      "componentType": 5126,
      "count": 425,
      "max": [
        0.9994571805000305,
        0.9993355870246887,
        0.9962732791900635
      ],
      "min": [
        -0.9994571805000305,
        -0.9993355870246887,
        -0.9962732791900635
      ],
      "type": "VEC3"
    },
    {
      "bufferView": 1,
      "byteOffset": 13504,
      "componentType": 5126,
      "count": 425,
      "max": [
        0.9916588068008423,
        0.99609375
      ],
      "min": [
        0.00390625,
        0.00390625
      ],
      "type": "VEC2"
    },
    {
      "bufferView": 0,
      "byteOffset": 27036,
      "componentType": 5125,
      "count": 1374,
      "type": "SCALAR"
    },
    {
      "bufferView": 2,
      "byteOffset": 50712,
      "componentType": 5126,
      "count": 10,
      "max": [
        0.405779629945755,
        0.8156088590621948,
        -0.040784236043691635
      ],
      "min": [
        -0.4002059996128082,
        0.009623292833566666,
        -0.15681426227092743
      ],
      "type": "VEC3"
    },
    {
      "bufferView": 2,
      "byteOffset": 50832,
      "componentType": 5126,
      "count": 10,
      "max": [
        0.4239034652709961,
        0.0,
        1.0
      ],
      "min": [
        -0.4239034652709961,
        0.0,
        0.9057074189186096
      ],
      "type": "VEC3"
    },
    {
      "bufferView": 1,
      "byteOffset": 16904,
      "componentType": 5126,
      "count": 10,
      "max": [
        1.0,
        1.0
      ],
      "min": [
        0.0,
        0.0
      ],
      "type": "VEC2"
    },
    {
      "bufferView": 0,
      "byteOffset": 32532,
      "componentType": 5125,
      "count": 24,
      "type": "SCALAR"
    }
  ],
  "asset": {
    "extras": {
      "author": "stylo0 (https://sketchfab.com/stylo0)",
      "license": "CC-BY-4.0 (http://creativecommons.org/licenses/by/4.0/)",
      "source": "https://sketchfab.com/3d-models/ramen-43a749d98ae640e3aef3437428c6a3fa",
      "title": "Ramen"
    },
    "generator": "Sketchfab-17.20.0",
    "version": "2.0"
  },
  "bufferViews": [
    {
      "buffer": 0,
      "byteLength": 32628,
      "name": "floatBufferViews",
      "target": 34963
    },
    {
      "buffer": 0,
      "byteLength": 16984,
      "byteOffset": 32628,
      "byteStride": 8,
      "name": "floatBufferViews",
      "target": 34962
    },
    {
      "buffer": 0,
      "byteLength": 50952,
      "byteOffset": 49612,
      "byteStride": 12,
      "name": "floatBufferViews",
      "target": 34962
    }
  ],
  "buffers": [
    {
      "byteLength": 100564,
      "uri": "scene.bin"
    }
  ],
  "extensionsUsed": [
    "KHR_materials_unlit"
  ],
  "images": [
    {
      "uri": "textures/ramenbowl_baseColor.png"
    },
    {
      "uri": "textures/ramennoodle_baseColor.png"
    },
    {
      "uri": "textures/ramenpork_baseColor.png"
    },
    {
      "uri": "textures/ramenEgg_baseColor.png"
    },
    {
      "uri": "textures/ramensmoke_baseColor.png"
    }
  ],
  "materials": [
    {
      "doubleSided": true,
      "extensions": {
        "KHR_materials_unlit": {}
      },
      "name": "ramenbowl",
      "pbrMetallicRoughness": {
        "baseColorTexture": {
          "index": 0
        },
        "metallicFactor": 0.0
      }
    },
    {
      "doubleSided": true,
      "extensions": {
        "KHR_materials_unlit": {}
      },
      "name": "ramennoodle",
      "pbrMetallicRoughness": {
        "baseColorTexture": {
          "index": 1
        },
        "metallicFactor": 0.0
      }
    },
    {
      "doubleSided": true,
      "extensions": {
        "KHR_materials_unlit": {}
      },
      "name": "ramenpork",
      "pbrMetallicRoughness": {
        "baseColorTexture": {
          "index": 2
        },
        "metallicFactor": 0.0
      }
    },
    {
      "doubleSided": true,
      "extensions": {
        "KHR_materials_unlit": {}
      },
      "name": "ramenEgg",
      "pbrMetallicRoughness": {
        "baseColorTexture": {
          "index": 3
        },
        "metallicFactor": 0.0
      }
    },
    {
      "alphaMode": "BLEND",
      "doubleSided": true,
      "extensions": {
        "KHR_materials_unlit": {}
      },
      "name": "ramensmoke",
      "pbrMetallicRoughness": {
        "baseColorTexture": {
          "index": 4
        },
        "metallicFactor": 0.0
      }
    }
  ],
  "meshes": [
    {
      "name": "Object_0",
      "primitives": [
        {
          "attributes": {
            "NORMAL": 1,
            "POSITION": 0,
            "TEXCOORD_0": 2
          },
          "indices": 3,
          "material": 0,
          "mode": 4
        }
      ]
    },
    {
      "name": "Object_1",
      "primitives": [
        {
          "attributes": {
            "NORMAL": 5,
            "POSITION": 4,
            "TEXCOORD_0": 6
          },
          "indices": 7,
          "material": 1,
          "mode": 4
        }
      ]
    },
    {
      "name": "Object_2",
      "primitives": [
        {
          "attributes": {
            "NORMAL": 9,
            "POSITION": 8,
            "TEXCOORD_0": 10
          },
          "indices": 11,
          "material": 2,
          "mode": 4
        }
      ]
    },
    {
      "name": "Object_3",
      "primitives": [
        {
          "attributes": {
            "NORMAL": 13,
            "POSITION": 12,
            "TEXCOORD_0": 14
          },
          "indices": 15,
          "material": 3,
          "mode": 4
        }
      ]
    },
    {
      "name": "Object_4",
      "primitives": [
        {
          "attributes": {
            "NORMAL": 17,
            "POSITION": 16,
            "TEXCOORD_0": 18
          },
          "indices": 19,
          "material": 4,
          "mode": 4
        }
      ]
    }
  ],
  "nodes": [
    {
      "children": [
        1
      ],
      "matrix": [
        1.0,
        0.0,
        0.0,
        0.0,
        0.0,
        2.220446049250313e-16,
        -1.0,
        0.0,
        0.0,
        1.0,
        2.220446049250313e-16,
        0.0,
        0.0,
        0.0,
        0.0,
        1.0
      ],
      "name": "Sketchfab_model"
    },
    {
      "children": [
        2
      ],
      "name": "root"
    },
    {
      "children": [
        3
      ],
      "matrix": [
        1.0,
        0.0,
        0.0,
        0.0,
        0.0,
        2.220446049250313e-16,
        1.0,
        0.0,
        0.0,
        -1.0,
        2.220446049250313e-16,
        0.0,
        0.0,
        0.0,
        0.0,
        1.0
      ],
      "name": "GLTF_SceneRootNode"
    },
    {
      "children": [
        4,
        5,
        6,
        7,
        8
      ],
      "matrix": [
        1.0,
        0.0,
        0.0,
        0.0,
        0.0,
        1.0,
        0.0,
        0.0,
        0.0,
        0.0,
        1.0,
        0.0,
        -8.970075607299805,
        0.04393868148326874,
        1.4511313438415527,
        1.0
      ],
      "name": "ramenbowlall_0"
    },
    {
      "mesh": 0,
      "name": "Object_4"
    },
    {
      "mesh": 1,
      "name": "Object_5"
    },
    {
      "mesh": 2,
      "name": "Object_6"
    },
    {
      "mesh": 3,
      "name": "Object_7"
    },
    {
      "mesh": 4,
      "name": "Object_8"
    }
  ],
  "samplers": [
    {
      "magFilter": 9729,
      "minFilter": 9987,
      "wrapS": 10497,
      "wrapT": 10497
    }
  ],
  "scene": 0,
  "scenes": [
    {
      "name": "Sketchfab_Scene",
      "nodes": [
        0
      ]
    }
  ],
  "textures": [
    {
      "sampler": 0,
      "source": 0
    },
    {
      "sampler": 0,
      "source": 1
    },
    {
      "sampler": 0,
      "source": 2
    },
    {
      "sampler": 0,
      "source": 3
    },
    {
      "sampler": 0,
      "source": 4
    }
  ]
}
